<svg width="36" height="36" viewBox="0 0 36 36" fill="none" xmlns="http://www.w3.org/2000/svg">
<circle cx="18" cy="18" r="16" fill="#0A2935"/>
<circle cx="18" cy="18" r="17" stroke="white" stroke-opacity="0.12" stroke-width="2"/>
<path d="M18.0052 26.3346C22.6076 26.3346 26.3385 22.6037 26.3385 18.0013C26.3385 13.3989 22.6076 9.66797 18.0052 9.66797C13.4028 9.66797 9.67188 13.3989 9.67188 18.0013C9.67188 22.6037 13.4028 26.3346 18.0052 26.3346Z" stroke="white" stroke-width="1.2" stroke-linecap="round" stroke-linejoin="round"/>
<path d="M18.0052 9.66797C15.8654 11.9148 14.6719 14.8986 14.6719 18.0013C14.6719 21.104 15.8654 24.0878 18.0052 26.3346C20.145 24.0878 21.3385 21.104 21.3385 18.0013C21.3385 14.8986 20.145 11.9148 18.0052 9.66797Z" stroke="white" stroke-width="1.2" stroke-linecap="round" stroke-linejoin="round"/>
<path d="M9.67188 18H26.3385" stroke="white" stroke-width="1.2" stroke-linecap="round" stroke-linejoin="round"/>
</svg>
