<svg width="1253" height="99" viewBox="0 0 1253 99" fill="none" xmlns="http://www.w3.org/2000/svg">
<g opacity="0.3" filter="url(#filter0_dii_337_4853)">
<path d="M4.78223 158.094V3.24786H31.6526V158.094H4.78223Z" fill="#CDEBFF"/>
<path d="M124.498 160.371C82.143 160.371 50.2629 130.54 50.2629 80.6709C50.2629 30.8013 82.143 0.970703 124.498 0.970703C161.388 0.970703 187.803 24.1976 192.129 58.8103H164.576C160.932 37.1774 144.765 25.5639 124.27 25.5639C96.7167 25.5639 77.8164 45.8305 77.8164 77.2552V84.0866C77.8164 115.511 96.7167 135.778 124.27 135.778C144.765 135.778 160.932 124.164 164.576 102.532H192.129C187.803 136.916 161.388 160.371 124.498 160.371Z" fill="#CDEBFF"/>
<path d="M209.814 158.094V3.24786H315.246V27.8411H236.685V67.008H309.326V90.918H236.685V133.501H315.246V158.094H209.814Z" fill="#CDEBFF"/>
<path d="M415.135 90.4626C390.314 85.4529 372.325 72.9286 372.325 47.1968C372.325 18.277 395.324 0.970703 429.709 0.970703C471.608 0.970703 488.459 26.247 490.281 53.8005H462.955C462.5 37.8605 452.936 24.1976 428.798 24.1976C410.581 24.1976 399.65 32.1676 399.65 45.1474C399.65 56.3054 408.076 61.7706 422.65 64.9586L446.104 70.196C470.925 75.2057 488.914 88.4132 488.914 114.145C488.914 143.065 465.915 160.371 431.075 160.371C389.403 160.371 372.325 135.095 370.503 107.541H397.601C398.284 123.481 408.076 137.144 432.214 137.144C450.658 137.144 461.589 129.402 461.589 116.194C461.589 105.036 453.391 98.8881 438.59 95.7001L415.135 90.4626Z" fill="#CDEBFF"/>
<path d="M545.866 158.094V28.0688H498.729V3.24786H620.101V28.0688H572.737V158.094H545.866Z" fill="#CDEBFF"/>
<path d="M704.849 3.24786L755.857 158.094H727.62L713.957 115.511H652.019L638.584 158.094H610.347L661.583 3.24786H704.849ZM659.761 90.918H706.215L691.186 44.0088L683.216 17.3662H682.76L674.79 44.0088L659.761 90.918Z" fill="#CDEBFF"/>
<path d="M771.096 158.094V3.24786H797.966V75.2057L855.806 3.24786H889.28L825.747 79.5323L889.507 158.094H855.578L797.966 83.8589V158.094H771.096Z" fill="#CDEBFF"/>
<path d="M903.855 158.094V3.24786H930.726V158.094H903.855Z" fill="#CDEBFF"/>
<path d="M953.89 158.094V3.24786H1001.48L1052.04 117.561L1062.74 143.292L1063.42 143.065L1062.97 115.284V3.24786H1088.93V158.094H1041.1L990.552 43.3257L979.85 17.5939L979.167 17.8216L979.622 45.6028V158.094H953.89Z" fill="#CDEBFF"/>
<path d="M1177.8 160.371C1138.18 160.371 1107.67 130.54 1107.67 80.6709C1107.67 30.8013 1139.78 0.970703 1181.9 0.970703C1218.79 0.970703 1242.25 23.5145 1247.49 53.8005H1219.7C1216.29 36.7219 1201.94 25.1085 1181.68 25.1085C1154.35 25.1085 1135.22 45.6028 1135.22 77.2552V84.0866C1135.22 115.739 1153.21 136.233 1180.99 136.233C1205.13 136.233 1222.44 120.749 1222.44 96.8386H1180.77V74.0672H1248.62V158.094H1227.22V132.59C1218.57 149.896 1201.26 160.371 1177.8 160.371Z" fill="#CDEBFF"/>
</g>
<defs>
<filter id="filter0_dii_337_4853" x="0.522967" y="-1.15893" width="1252.36" height="170.049" filterUnits="userSpaceOnUse" color-interpolation-filters="sRGB">
<feFlood flood-opacity="0" result="BackgroundImageFix"/>
<feColorMatrix in="SourceAlpha" type="matrix" values="0 0 0 0 0 0 0 0 0 0 0 0 0 0 0 0 0 0 127 0" result="hardAlpha"/>
<feOffset dy="4.25926"/>
<feGaussianBlur stdDeviation="2.12963"/>
<feComposite in2="hardAlpha" operator="out"/>
<feColorMatrix type="matrix" values="0 0 0 0 0.0177198 0 0 0 0 0.0801828 0 0 0 0 0.104362 0 0 0 0.08 0"/>
<feBlend mode="normal" in2="BackgroundImageFix" result="effect1_dropShadow_337_4853"/>
<feBlend mode="normal" in="SourceGraphic" in2="effect1_dropShadow_337_4853" result="shape"/>
<feColorMatrix in="SourceAlpha" type="matrix" values="0 0 0 0 0 0 0 0 0 0 0 0 0 0 0 0 0 0 127 0" result="hardAlpha"/>
<feOffset dy="0.615263"/>
<feGaussianBlur stdDeviation="1.02544"/>
<feComposite in2="hardAlpha" operator="arithmetic" k2="-1" k3="1"/>
<feColorMatrix type="matrix" values="0 0 0 0 0.0436677 0 0 0 0 0.44909 0 0 0 0 0.615495 0 0 0 0.4 0"/>
<feBlend mode="normal" in2="shape" result="effect2_innerShadow_337_4853"/>
<feColorMatrix in="SourceAlpha" type="matrix" values="0 0 0 0 0 0 0 0 0 0 0 0 0 0 0 0 0 0 127 0" result="hardAlpha"/>
<feOffset dy="-2.12963"/>
<feGaussianBlur stdDeviation="1.59722"/>
<feComposite in2="hardAlpha" operator="arithmetic" k2="-1" k3="1"/>
<feColorMatrix type="matrix" values="0 0 0 0 1 0 0 0 0 1 0 0 0 0 1 0 0 0 0.4 0"/>
<feBlend mode="normal" in2="effect2_innerShadow_337_4853" result="effect3_innerShadow_337_4853"/>
</filter>
</defs>
</svg>
