<svg width="50" height="41" viewBox="0 0 50 41" fill="none" xmlns="http://www.w3.org/2000/svg">
<g filter="url(#filter0_di_337_4538)">
<path fill-rule="evenodd" clip-rule="evenodd" d="M12.7703 6.22255C13.001 6.00139 13.3056 5.87237 13.6195 5.87237C25.3519 5.4773 31.7482 5.50385 42.9209 5.87237C43.4563 5.87237 43.724 6.51745 43.3455 6.89528L37.5573 12.6734C37.3358 12.8946 37.031 13.0236 36.708 13.0236C24.6146 12.6952 18.2974 12.7449 7.40661 13.0236C6.87117 13.0236 6.60345 12.3785 6.98195 12.0006L12.7703 6.22255ZM12.7703 27.7959C12.9918 27.5748 13.2964 27.4457 13.6195 27.4457C25.0952 27.3022 31.5032 27.3357 42.9209 27.4457C43.4563 27.4457 43.724 28.0908 43.3455 28.4686L37.5573 34.2467C37.3358 34.4679 37.031 34.5969 36.708 34.5969C25.1504 35.1608 18.7737 34.9697 7.40661 34.5969C6.87118 34.5969 6.60346 33.9518 6.98196 33.574L12.7703 27.7959ZM36.708 16.5899C37.031 16.5899 37.3358 16.7189 37.5573 16.9401L43.3455 22.7182C43.724 23.0961 43.4563 23.7412 42.9209 23.7412C33.6658 23.4981 27.6545 23.5722 19.5258 23.6724C17.6862 23.6952 15.7382 23.7191 13.6195 23.7412C13.2964 23.7412 12.9918 23.6121 12.7703 23.3909L6.98196 17.6129C6.60346 17.235 6.87118 16.5899 7.40661 16.5899C18.6664 16.811 25.0754 16.8187 36.708 16.5899Z" fill="#CDEBFF"/>
</g>
<g filter="url(#filter1_d_337_4538)">
<path d="M26.6517 8.94246C29.359 9.78242 30.6218 6.36537 35.0633 9.59953C35.5378 9.94503 36.275 9.86256 36.6912 9.44894C37.9123 8.23557 40.1907 6.5405 40.4283 8.94246C40.5562 10.2347 41.9159 9.08658 43.2059 7.83953C43.222 7.82395 43.2349 7.80405 43.2432 7.78323C43.9843 5.92324 45.2313 6.86296 45.0983 5.91229C44.8649 4.24181 42.4277 3.76891 40.9343 4.59144C38.677 5.83459 33.9293 5.09647 32.0612 4.08642C30.1932 3.07636 24.224 3.12762 21.9428 4.08642C19.7246 5.01877 14.7043 4.70799 11.0072 3.46484C7.31007 2.22169 8.01058 8.74822 5.59774 10.6129C4.56331 11.4124 4.70264 13.1381 6.92091 12.3223C9.13921 11.5065 10.0732 8.74822 11.4353 7.9324C12.7974 7.11659 16.1832 10.7683 19.7635 7.46622C21.34 6.0122 23.7719 8.04895 26.6517 8.94246Z" fill="#F2FBFF"/>
</g>
<g filter="url(#filter2_d_337_4538)">
<path d="M21.9941 17.651C24.2261 17.2426 28.1478 17.7633 26.696 16.6651C24.7265 15.4694 22.0541 16.4174 20.2195 16.6651C18.3851 16.9127 10.6191 16.1568 9.16415 16.1321C7.70919 16.1073 5.99194 16.8593 7.30262 17.3831C8.54785 17.8809 19.6807 18.0743 21.9941 17.651Z" fill="#F2FBFF"/>
</g>
<g filter="url(#filter3_d_337_4538)">
<path d="M29.7089 27.848C27.4769 27.4396 20.415 28.2281 21.8668 27.1299C23.8363 25.9342 26.5087 26.8822 28.3432 27.1299C30.1777 27.3775 37.9437 26.6217 39.3986 26.5969C40.8536 26.5722 42.5709 27.3241 41.2603 27.848C40.0149 28.3458 32.0223 28.2714 29.7089 27.848Z" fill="#F2FBFF"/>
</g>
<defs>
<filter id="filter0_di_337_4538" x="2.80469" y="3.58594" width="44.7183" height="37.3657" filterUnits="userSpaceOnUse" color-interpolation-filters="sRGB">
<feFlood flood-opacity="0" result="BackgroundImageFix"/>
<feColorMatrix in="SourceAlpha" type="matrix" values="0 0 0 0 0 0 0 0 0 0 0 0 0 0 0 0 0 0 127 0" result="hardAlpha"/>
<feOffset dy="2"/>
<feGaussianBlur stdDeviation="2"/>
<feComposite in2="hardAlpha" operator="out"/>
<feColorMatrix type="matrix" values="0 0 0 0 0 0 0 0 0 0 0 0 0 0 0 0 0 0 0.12 0"/>
<feBlend mode="normal" in2="BackgroundImageFix" result="effect1_dropShadow_337_4538"/>
<feBlend mode="normal" in="SourceGraphic" in2="effect1_dropShadow_337_4538" result="shape"/>
<feColorMatrix in="SourceAlpha" type="matrix" values="0 0 0 0 0 0 0 0 0 0 0 0 0 0 0 0 0 0 127 0" result="hardAlpha"/>
<feOffset dy="0.577812"/>
<feGaussianBlur stdDeviation="0.96302"/>
<feComposite in2="hardAlpha" operator="arithmetic" k2="-1" k3="1"/>
<feColorMatrix type="matrix" values="0 0 0 0 0.0436677 0 0 0 0 0.44909 0 0 0 0 0.615495 0 0 0 0.4 0"/>
<feBlend mode="normal" in2="shape" result="effect2_innerShadow_337_4538"/>
</filter>
<filter id="filter1_d_337_4538" x="0.986176" y="0.116284" width="48.1126" height="17.2083" filterUnits="userSpaceOnUse" color-interpolation-filters="sRGB">
<feFlood flood-opacity="0" result="BackgroundImageFix"/>
<feColorMatrix in="SourceAlpha" type="matrix" values="0 0 0 0 0 0 0 0 0 0 0 0 0 0 0 0 0 0 127 0" result="hardAlpha"/>
<feOffset dy="0.798077"/>
<feGaussianBlur stdDeviation="1.99519"/>
<feComposite in2="hardAlpha" operator="out"/>
<feColorMatrix type="matrix" values="0 0 0 0 0.0688998 0 0 0 0 0.321569 0 0 0 0 0.425277 0 0 0 0.2 0"/>
<feBlend mode="normal" in2="BackgroundImageFix" result="effect1_dropShadow_337_4538"/>
<feBlend mode="normal" in="SourceGraphic" in2="effect1_dropShadow_337_4538" result="shape"/>
</filter>
<filter id="filter2_d_337_4538" x="2.84555" y="12.8819" width="28.1551" height="9.79034" filterUnits="userSpaceOnUse" color-interpolation-filters="sRGB">
<feFlood flood-opacity="0" result="BackgroundImageFix"/>
<feColorMatrix in="SourceAlpha" type="matrix" values="0 0 0 0 0 0 0 0 0 0 0 0 0 0 0 0 0 0 127 0" result="hardAlpha"/>
<feOffset dy="0.798077"/>
<feGaussianBlur stdDeviation="1.99519"/>
<feComposite in2="hardAlpha" operator="out"/>
<feColorMatrix type="matrix" values="0 0 0 0 0.0688998 0 0 0 0 0.321569 0 0 0 0 0.425277 0 0 0 0.2 0"/>
<feBlend mode="normal" in2="BackgroundImageFix" result="effect1_dropShadow_337_4538"/>
<feBlend mode="normal" in="SourceGraphic" in2="effect1_dropShadow_337_4538" result="shape"/>
</filter>
<filter id="filter3_d_337_4538" x="17.6815" y="23.3468" width="28.0359" height="9.63556" filterUnits="userSpaceOnUse" color-interpolation-filters="sRGB">
<feFlood flood-opacity="0" result="BackgroundImageFix"/>
<feColorMatrix in="SourceAlpha" type="matrix" values="0 0 0 0 0 0 0 0 0 0 0 0 0 0 0 0 0 0 127 0" result="hardAlpha"/>
<feOffset dy="0.798077"/>
<feGaussianBlur stdDeviation="1.99519"/>
<feComposite in2="hardAlpha" operator="out"/>
<feColorMatrix type="matrix" values="0 0 0 0 0.0688998 0 0 0 0 0.321569 0 0 0 0 0.425277 0 0 0 0.2 0"/>
<feBlend mode="normal" in2="BackgroundImageFix" result="effect1_dropShadow_337_4538"/>
<feBlend mode="normal" in="SourceGraphic" in2="effect1_dropShadow_337_4538" result="shape"/>
</filter>
</defs>
</svg>
